PathFileType	4	(X/Y/Z)	/Users/itak/Documents/Research/Walk-IL/dataset/trc/00232_00009.trc
DataRate	CameraRate	NumFrames	NumMarkers	Units	OrigDataRate	OrigDataStartFrame	OrigNumFrames
100.000000	100.000000	4	53	mm	100.000000	532	852
Frame#	Time	RPSI			LPSI			L3			STRN			T10			C7			CLAV			RBAK			LBAK			LSHO			LUPA			LAEL			LAOL			LWTS			LWPS			LFRA			LIFD			LHPS			LHTS			RSHO			RUPA			RAEL			RAOL			RWTS			RWPS			RFRA			RIFD			RHTS			RHPS			RBHD			LFHD			RFHD			LBHD			LHIP			RHIP			RASI			LASI			LKNE			LTHI			LANK			LTIP			LTOE			LMT1			LMT5			LHEE			RKNE			RTHI			RANK			RTIP			RTOE			RMT1			RMT5			RHEE			
		X1	Y1	Z1	X2	Y2	Z2	X3	Y3	Z3	X4	Y4	Z4	X5	Y5	Z5	X6	Y6	Z6	X7	Y7	Z7	X8	Y8	Z8	X9	Y9	Z9	X10	Y10	Z10	X11	Y11	Z11	X12	Y12	Z12	X13	Y13	Z13	X14	Y14	Z14	X15	Y15	Z15	X16	Y16	Z16	X17	Y17	Z17	X18	Y18	Z18	X19	Y19	Z19	X20	Y20	Z20	X21	Y21	Z21	X22	Y22	Z22	X23	Y23	Z23	X24	Y24	Z24	X25	Y25	Z25	X26	Y26	Z26	X27	Y27	Z27	X28	Y28	Z28	X29	Y29	Z29	X30	Y30	Z30	X31	Y31	Z31	X32	Y32	Z32	X33	Y33	Z33	X34	Y34	Z34	X35	Y35	Z35	X36	Y36	Z36	X37	Y37	Z37	X38	Y38	Z38	X39	Y39	Z39	X40	Y40	Z40	X41	Y41	Z41	X42	Y42	Z42	X43	Y43	Z43	X44	Y44	Z44	X45	Y45	Z45	X46	Y46	Z46	X47	Y47	Z47	X48	Y48	Z48	X49	Y49	Z49	X50	Y50	Z50	X51	Y51	Z51	X52	Y52	Z52	X53	Y53	Z53	

533	5.32	-72.47930908203125	1037.978271484375	-493.6783752441406	23.66704940795898	1039.129638671875	-422.2127685546875	-17.9260196685791	1124.7587890625	-452.6426696777344	-169.1155090332031	1297.253295898438	-236.7249450683594	-32.44902420043945	1251.731079101562	-457.3783874511719	-79.85540008544922	1509.427124023438	-393.8778076171875	-162.9985198974609	1415.376708984375	-257.8461303710938	-93.13430786132812	1371.50537109375	-501.2821655273438	25.28285980224609	1476.210083007812	-354.6557922363281	27.81613159179688	1474.007568359375	-248.7627868652344	119.8242340087891	1360.6865234375	-246.9364929199219	154.4938201904297	1151.593017578125	-247.8827056884766	145.5926818847656	1144.51171875	-334.4998474121094	74.56728363037109	910.1009521484375	-216.3342895507812	156.8343505859375	895.0676879882812	-206.6000671386719	162.9344482421875	1042.451782226562	-233.1118011474609	87.9271240234375	716.06689453125	-230.5751190185547	149.4364624023438	805.6963500976562	-203.127197265625	82.94362640380859	805.5616455078125	-187.697021484375	-249.4992370605469	1458.826293945312	-436.4759826660156	-294.6315002441406	1395.397216796875	-489.4180297851562	-332.7825012207031	1119.31884765625	-532.8505249023438	-240.6752471923828	1104.386474609375	-515.231201171875	-388.0487060546875	912.1006469726562	-391.4527587890625	-414.56787109375	898.014404296875	-470.9823913574219	-362.9944152832031	1053.144775390625	-516.9671630859375	-410.3953857421875	721.5302734375	-372.0572509765625	-436.8172302246094	796.7405395507812	-364.8064575195312	-448.4248352050781	795.1747436523438	-436.1399536132812	-159.4006652832031	1667.346557617188	-376.4732666015625	-181.9528656005859	1684.544555664062	-150.4579162597656	-268.1172790527344	1684.203369140625	-202.8412780761719	-68.85160827636719	1668.317993164062	-269.4878845214844	71.40824890136719	979.1474609375	-255.8976745605469	-215.7342987060547	994.7996826171875	-485.12451171875	-248.6518249511719	1032.6650390625	-383.3915710449219	-29.15048217773438	1020.8193359375	-209.7490997314453	-77.27600860595703	525.4942626953125	-127.6411361694336	-12.32946014404297	655.7969970703125	-155.6611480712891	-124.1246032714844	38.83613586425781	-163.1649780273438	-84.44602966308594	293.9783020019531	-151.3719635009766	-240.0108489990234	98.19513702392578	8.324514389038086	-259.5345764160156	78.30326843261719	-65.92211151123047	-150.4858856201172	60.26187896728516	-40.40729522705078	-149.7839965820312	41.45126724243164	-238.7904510498047	-167.1758728027344	509.2330322265625	-492.8547058105469	-241.2268829345703	769.6983032226562	-460.6376342773438	-58.98599624633789	32.01835632324219	-580.2740478515625	-148.2366638183594	392.9377746582031	-494.1440124511719	-189.7983856201172	40.73500442504883	-407.797119140625	-120.2216262817383	39.84016418457031	-413.0275268554688	-159.1820373535156	30.04297828674316	-530.35302734375	25.65503692626953	36.08868408203125	-578.102294921875	
534	5.33	-76.40516662597656	1037.146118164062	-489.2078247070312	20.18081855773926	1038.140991210938	-418.4420166015625	-21.63356781005859	1123.786010742188	-448.6296691894531	-171.0828552246094	1296.348876953125	-231.5093383789062	-36.17778015136719	1250.733276367188	-453.4566345214844	-83.09574890136719	1508.412963867188	-389.4761047363281	-165.0406036376953	1414.478759765625	-252.6486206054688	-97.34300231933594	1370.659545898438	-496.8516845703125	22.37594032287598	1475.122314453125	-351.1907043457031	25.83429336547852	1472.946899414062	-245.3490142822266	117.9637985229492	1359.76025390625	-244.1602325439453	153.1099243164062	1150.783447265625	-244.7865600585938	143.8092041015625	1143.559204101562	-331.3555603027344	73.71694183349609	909.1593627929688	-212.5680999755859	156.0658874511719	894.2636108398438	-203.1465911865234	161.811279296875	1041.667724609375	-229.8826904296875	87.08233642578125	715.1966552734375	-227.0424652099609	148.7470703125	804.8413696289062	-199.7543029785156	82.2584228515625	804.63720703125	-184.0597381591797	-253.1654205322266	1457.89990234375	-430.45068359375	-298.760498046875	1394.30615234375	-482.8870849609375	-336.8717651367188	1118.139770507812	-525.7156982421875	-244.3356323242188	1103.591430664062	-509.3667297363281	-389.7296447753906	910.6585693359375	-383.7797241210938	-417.19091796875	896.552734375	-462.9390258789062	-366.6773681640625	1051.871826171875	-509.4275817871094	-410.9683532714844	719.9306030273438	-364.3565979003906	-437.5741271972656	795.0071411132812	-356.634521484375	-450.0423889160156	793.5203857421875	-427.7309265136719	-162.3404083251953	1666.494750976562	-371.25390625	-182.8963775634766	1683.551513671875	-145.03564453125	-269.5252685546875	1683.265258789062	-196.6661071777344	-70.85598754882812	1667.388061523438	-265.085205078125	68.59970092773438	977.832763671875	-252.9094848632812	-219.6811065673828	993.8886108398438	-480.0003356933594	-252.1171875	1031.93505859375	-378.1760864257812	-31.63313674926758	1019.847290039062	-205.7595825195312	-80.11981201171875	524.7588500976562	-123.8945922851562	-15.09579372406006	654.7903442382812	-152.1701507568359	-130.9121704101562	38.05923080444336	-153.6460266113281	-89.0606689453125	293.1197814941406	-145.1421508789062	-244.2809753417969	99.68479156494141	18.72389221191406	-264.8164672851562	79.48313140869141	-55.16587829589844	-155.6537933349609	60.63375473022461	-30.76249694824219	-157.4128723144531	40.22589874267578	-228.9740142822266	-168.8612518310547	509.0836486816406	-490.4389343261719	-244.0788726806641	768.9620361328125	-456.4712524414062	-58.99789810180664	32.28918075561523	-580.2337646484375	-149.3062286376953	392.8440246582031	-492.439208984375	-189.7505493164062	40.72564315795898	-407.843505859375	-120.2772979736328	39.91933059692383	-413.0901489257812	-159.2091827392578	30.00662231445312	-530.3742065429688	25.6068286895752	36.79530715942383	-578.2330932617188	
535	5.34	-80.28399658203125	1036.276000976562	-484.5485229492188	16.72286987304688	1037.100219726562	-414.4661560058594	-25.29730415344238	1122.767333984375	-444.4071655273438	-173.0208892822266	1295.43701171875	-226.203125	-39.82247543334961	1249.692749023438	-449.3605041503906	-86.21277618408203	1507.373168945312	-384.9656372070312	-167.0439147949219	1413.566650390625	-247.3796234130859	-101.4142684936523	1369.772216796875	-492.3023376464844	19.53941917419434	1474.010498046875	-347.5367126464844	23.87711143493652	1471.8779296875	-241.7649230957031	116.1181411743164	1358.818969726562	-241.1756286621094	151.6431121826172	1149.950805664062	-241.5346069335938	142.0081329345703	1142.594116210938	-328.0616149902344	72.72441101074219	908.203125	-208.7519683837891	155.1396942138672	893.4654541015625	-199.5055999755859	160.5621795654297	1040.868774414062	-226.4891815185547	86.12870788574219	714.3287353515625	-223.3651275634766	147.9065551757812	803.9880981445312	-196.1683197021484	81.38908386230469	803.7100830078125	-180.3050842285156	-256.6932067871094	1456.964233398438	-424.3759765625	-302.7399291992188	1393.212158203125	-476.3139343261719	-340.8329467773438	1116.964965820312	-518.5342407226562	-247.9741973876953	1102.727661132812	-503.4097290039062	-391.2252807617188	909.2083129882812	-376.0718994140625	-419.67919921875	895.1054077148438	-454.8453063964844	-370.2243041992188	1050.599853515625	-501.8358459472656	-411.3315734863281	718.3114624023438	-356.6995849609375	-437.9327697753906	793.2171020507812	-348.3916931152344	-451.4700927734375	791.8555297851562	-419.2928466796875	-165.1740875244141	1665.610229492188	-365.9710388183594	-183.7847442626953	1682.557495117188	-139.6005249023438	-270.8563537597656	1682.340087890625	-190.4674224853516	-72.77010345458984	1666.424926757812	-260.6126403808594	65.75790405273438	976.4388427734375	-249.6824645996094	-223.6171875	993.0269165039062	-474.6848754882812	-255.5816650390625	1031.231079101562	-372.8373718261719	-34.17002487182617	1018.824951171875	-201.5869140625	-82.94167327880859	523.8861694335938	-120.0886459350586	-17.94491958618164	653.7261352539062	-148.5873565673828	-137.3314971923828	37.22227478027344	-144.9286804199219	-93.51923370361328	292.1410827636719	-139.2855377197266	-248.0082855224609	100.7491226196289	28.49839401245117	-269.6256408691406	80.36730194091797	-45.05685806274414	-160.3479461669922	60.68191528320312	-21.88128471374512	-164.7284240722656	39.08232879638672	-219.9224853515625	-170.6549682617188	508.9452819824219	-487.8382873535156	-246.9365386962891	768.2586059570312	-452.1976318359375	-59.01857376098633	32.62790679931641	-580.1685180664062	-150.5053558349609	392.7728881835938	-490.5758361816406	-189.7244262695312	40.71445846557617	-407.89013671875	-120.3610153198242	40.00811386108398	-413.1537780761719	-159.2427978515625	29.97133255004883	-530.3901977539062	25.56302070617676	37.60496139526367	-578.3572998046875	
536	5.350000000000001	-84.13116455078125	1035.372314453125	-479.6973266601562	13.28312206268311	1036.007690429688	-410.2860107421875	-28.92682456970215	1121.699829101562	-439.9799194335938	-174.9169769287109	1294.516723632812	-220.7971496582031	-43.388916015625	1248.60546875	-445.0789489746094	-89.20618438720703	1506.305297851562	-380.3443298339844	-169.0081787109375	1412.64208984375	-242.0365142822266	-105.3474731445312	1368.832641601562	-487.6237182617188	16.77732849121094	1472.86962890625	-343.6993408203125	21.95639610290527	1470.800048828125	-238.0128173828125	114.2909622192383	1357.855102539062	-237.9931335449219	150.1030426025391	1149.085815429688	-238.1549835205078	140.1473541259766	1141.604614257812	-324.6431579589844	71.62249755859375	907.2344360351562	-204.8468170166016	154.0892944335938	892.6626586914062	-195.7040863037109	159.2104187011719	1040.044067382812	-222.9638061523438	85.09463500976562	713.4467163085938	-219.4894409179688	146.9509124755859	803.130859375	-192.3762054443359	80.39554595947266	802.7818603515625	-176.3921966552734	-260.0867919921875	1456.013549804688	-418.2571105957031	-306.5585327148438	1392.116088867188	-469.706298828125	-344.65966796875	1115.791870117188	-511.3159484863281	-251.6082153320312	1101.781494140625	-497.3538818359375	-392.5473327636719	907.7556762695312	-368.3279418945312	-422.0437316894531	893.6748046875	-446.7020874023438	-373.6340637207031	1049.326782226562	-494.2046508789062	-411.5188293457031	716.6849365234375	-349.0773315429688	-438.0083923339844	791.4027099609375	-340.1108703613281	-452.7342529296875	790.1884765625	-410.8281860351562	-167.9006805419922	1664.693237304688	-360.6282348632812	-184.611083984375	1681.564819335938	-134.1553039550781	-272.1067810058594	1681.427978515625	-184.2461853027344	-74.59761810302734	1665.427124023438	-256.0720825195312	62.8941764831543	974.9940185546875	-246.1670989990234	-227.5597076416016	992.2277221679688	-469.1681518554688	-259.0394592285156	1030.552124023438	-367.3479309082031	-36.73777008056641	1017.748352050781	-197.2201538085938	-85.71745300292969	522.8667602539062	-116.2297439575195	-20.85832977294922	652.59423828125	-144.9152526855469	-143.4450531005859	36.29531097412109	-137.0448760986328	-97.82949066162109	291.0289001464844	-133.796142578125	-251.2890014648438	101.3721313476562	37.58990478515625	-274.0497436523438	80.93600463867188	-35.65195083618164	-164.6696014404297	60.37215805053711	-13.80788993835449	-171.7794036865234	37.99961853027344	-211.6806793212891	-172.5532531738281	508.8289489746094	-485.0520935058594	-249.8165130615234	767.5869750976562	-447.7792358398438	-59.05225372314453	33.03884506225586	-580.0736694335938	-151.8452301025391	392.7314758300781	-488.5620422363281	-189.7261810302734	40.70360565185547	-407.9359741210938	-120.4751968383789	40.10565567016602	-413.218017578125	-159.2816467285156	29.9372501373291	-530.3994140625	25.51010131835938	38.529052734375	-578.4635009765625	
